<svg width="20" height="20" viewBox="0 0 20 20" fill="none" xmlns="http://www.w3.org/2000/svg">
<g id="Huge-icon/interface/outline/eye">
<g id="Vector">
<path d="M17.6087 8.21075C18.575 9.22748 18.575 10.7722 17.6087 11.7889C15.9788 13.5037 13.1797 15.8332 10.0001 15.8332C6.82049 15.8332 4.02133 13.5037 2.3915 11.7889C1.42516 10.7722 1.42516 9.22748 2.3915 8.21075C4.02132 6.49595 6.82049 4.1665 10.0001 4.1665C13.1797 4.1665 15.9788 6.49595 17.6087 8.21075Z" stroke="#141C1D" stroke-width="1.5"/>
<path d="M12.5001 9.99984C12.5001 11.3805 11.3808 12.4998 10.0001 12.4998C8.61937 12.4998 7.50008 11.3805 7.50008 9.99984C7.50008 8.61913 8.61937 7.49984 10.0001 7.49984C11.3808 7.49984 12.5001 8.61913 12.5001 9.99984Z" stroke="#141C1D" stroke-width="1.5"/>
</g>
</g>
</svg>
